0
SECTION
2
HEADER
9
$INSUNITS
70
4
9
$ACADVER
1
AC1014
9
$HANDSEED
5
FFFF
0
ENDSEC
0
SECTION
2
TABLES
0
TABLE
2
VPORT
5
8
100
AcDbSymbolTable
0
ENDTAB
0
TABLE
2
LTYPE
5
5
100
AcDbSymbolTable
0
LTYPE
5
14
100
AcDbSymbolTableRecord
100
AcDbLinetypeTableRecord
2
BYBLOCK
70
0
0
LTYPE
5
15
100
AcDbSymbolTableRecord
100
AcDbLinetypeTableRecord
2
BYLAYER
70
0
0
LTYPE
5
16
100
AcDbSymbolTableRecord
100
AcDbLinetypeTableRecord
2
DASHED
70
0
3
Dashed __ __ __ __ __ __ __ __ __ __ __ __ __ _
72
65
73
2
40
0.75
49
0.5
74
0
49
-0.25
74
0
0
ENDTAB
0
TABLE
2
LAYER
5
2
100
AcDbSymbolTable
70
2
0
LAYER
5
50
100
AcDbSymbolTableRecord
100
AcDbLayerTableRecord
2
0
70
0
62
7
6
CONTINUOUS
0
ENDTAB
0
TABLE
2
STYLE
5
3
100
AcDbSymbolTable
70
1
0
STYLE
5
11
100
AcDbSymbolTableRecord
100
AcDbTextStyleTableRecord
2
STANDARD
70
0
0
ENDTAB
0
TABLE
2
VIEW
5
6
100
AcDbSymbolTable
70
0
0
ENDTAB
0
TABLE
2
UCS
5
7
100
AcDbSymbolTable
70
0
0
ENDTAB
0
TABLE
2
APPID
5
9
100
AcDbSymbolTable
70
2
0
APPID
5
12
100
AcDbSymbolTableRecord
100
AcDbRegAppTableRecord
2
ACAD
70
0
0
ENDTAB
0
TABLE
2
DIMSTYLE
5
A
100
AcDbSymbolTable
70
1
0
ENDTAB
0
TABLE
2
BLOCK_RECORD
5
1
100
AcDbSymbolTable
70
1
0
BLOCK_RECORD
5
1F
100
AcDbSymbolTableRecord
100
AcDbBlockTableRecord
2
*MODEL_SPACE
0
BLOCK_RECORD
5
1B
100
AcDbSymbolTableRecord
100
AcDbBlockTableRecord
2
*PAPER_SPACE
0
ENDTAB
0
ENDSEC
0
SECTION
2
BLOCKS
0
BLOCK
5
20
100
AcDbEntity
100
AcDbBlockBegin
2
*MODEL_SPACE
0
ENDBLK
5
21
100
AcDbEntity
100
AcDbBlockEnd
0
BLOCK
5
1C
100
AcDbEntity
100
AcDbBlockBegin
2
*PAPER_SPACE
0
ENDBLK
5
1D
100
AcDbEntity
100
AcDbBlockEnd
0
ENDSEC
0
SECTION
2
ENTITIES
0
LWPOLYLINE
5
100
100
AcDbEntity
8
OUTER_PROFILES
100
AcDbPolyline
90
39
70
1
43
0.0
10
130.00779399938412
20
-23.000000222334009
42
-0.41466973320109385
10
125.0078000616668
20
-17.992214158478298
10
125.02647451321323
20
-6.0000000882235485
10
127.02647454301555
20
-3.0000000435200653
10
125.00000186501279
20
0
10
0
20
0
10
-1.9735273792342412
20
-3.0000000435200653
10
0.026472650568081235
20
-6.0000000882235494
10
0.007773949876099806
20
-18.007786286189717
42
-0.41375753864078962
10
-4.992219987841187
20
-23.000000222334009
10
-14.992208161284282
20
-23.000000222334002
42
-0.41466973320109268
10
-19.99220209900157
20
-17.992214158478298
10
-19.973527647455143
20
-6.0000000882235485
10
-17.97352761765282
20
-3.0000000435200653
10
-20.000000296870333
20
0
10
-22.973527632553989
20
-1.329270279959438e-07
42
-0.41421357546644216
10
-24.973527721960949
20
1.9999998670729724
10
-24.973527721960949
20
9.9999997776659999
42
-0.3649196879123382
10
-12.528711866064675
20
24.780765454373039
10
27.178494395739676
20
31.645039340177739
42
-0.042821243009078802
10
44.213055356431269
20
33.106601495464204
10
71.32845403196923
20
33.106601495465057
42
0.32491969623287426
10
77.98584964603387
20
37.943482534839568
10
77.894775918691934
20
37.663186423530433
42
-0.3249196962329311
10
84.552171532759644
20
42.500067462907218
10
104.38057614068471
20
42.500067462907126
42
0.32491969623288403
10
111.03797175474917
20
47.336948502281089
10
118.90472286489315
20
71.548318885025949
42
-0.32491969623286837
10
123.66000544636867
20
75.003233913151817
10
133.12110817590317
20
75.00323391315122
42
-0.50952544949442768
10
137.87639075737903
20
68.458148941276406
10
128.41919735556257
20
39.351900500623501
42
0.39384565561927659
10
135.62222009078468
20
23.900441222195468
42
-0.26590321795926009
10
144.8381326550579
20
12.19162748528684
10
144.8381326550579
20
-0.16615201996178997
10
143.02647478143413
20
-3.0000000435200653
10
144.8381326550579
20
-6.0000000882235494
10
144.8381326550579
20
-18.000000222334002
42
-0.41421356237309503
10
139.8381326550579
20
-23.000000222334002
0
LWPOLYLINE
5
101
100
AcDbEntity
8
INTERIOR_PROFILES
100
AcDbPolyline
90
4
70
1
43
0.0
10
27.633073995837272
20
28.106601495464215
42
0.99999999999999989
10
27.633073995837272
20
23.106601495464204
10
47.633073995837265
20
23.106601495464211
42
0.99999999999999989
10
47.633073995837265
20
28.106601495464211
0
CIRCLE
5
102
100
AcDbEntity
8
INTERIOR_PROFILES
100
AcDbCircle
10
120.56901497431637
20
60.489434614714447
30
0
40
2.5
210
0
220
0
230
1
0
CIRCLE
5
103
100
AcDbEntity
8
INTERIOR_PROFILES
100
AcDbCircle
10
135.02647466222484
20
9.9999997776660017
30
0
40
2.5
210
0
220
0
230
1
0
LWPOLYLINE
5
104
100
AcDbEntity
8
INTERIOR_PROFILES
100
AcDbPolyline
90
4
70
1
43
0.0
10
91.982175894044161
20
26.528878340339148
10
90.88771143540211
20
29.535894726854053
10
104.98310074719073
20
34.666196876739086
10
106.07756520583287
20
31.659180490224202
0
CIRCLE
5
105
100
AcDbEntity
8
INTERIOR_PROFILES
100
AcDbCircle
10
-9.9735277219609486
20
14.000000209799676
30
0
40
2.5
210
0
220
0
230
1
0
LWPOLYLINE
5
106
100
AcDbEntity
8
INTERIOR_PROFILES
100
AcDbPolyline
90
4
70
1
43
0.0
10
22.526472278039034
20
7.9999997776659999
42
0.99999999999999989
10
27.526472278039069
20
7.9999997776659999
10
27.526472278039051
20
14.999999777666002
42
0.99999999999999989
10
22.526472278039051
20
14.999999777666002
0
LWPOLYLINE
5
107
100
AcDbEntity
8
INTERIOR_PROFILES
100
AcDbPolyline
90
4
70
1
43
0.0
10
99.84863919053447
20
4.9159480622634693
10
113.94402850232314
20
10.046250212148633
10
115.03849296096527
20
7.0392338256337421
10
100.94310364917663
20
1.9089316757487063
0
CIRCLE
5
108
100
AcDbEntity
8
INTERIOR_PROFILES
100
AcDbCircle
10
135.00000201280966
20
-15.500000222334002
30
0
40
2.5000001043081355
210
0
220
0
230
1
0
CIRCLE
5
109
100
AcDbEntity
8
INTERIOR_PROFILES
100
AcDbCircle
10
113.61613260088005
20
39.090662998073491
30
0
40
2.5
210
0
220
0
230
1
0
CIRCLE
5
110
100
AcDbEntity
8
INTERIOR_PROFILES
100
AcDbCircle
10
122.88664243212848
20
67.622358486928093
30
0
40
2.5
210
0
220
0
230
1
0
CIRCLE
5
111
100
AcDbEntity
8
INTERIOR_PROFILES
100
AcDbCircle
10
118.25138751650427
20
53.356510742500795
30
0
40
2.5
210
0
220
0
230
1
0
CIRCLE
5
112
100
AcDbEntity
8
INTERIOR_PROFILES
100
AcDbCircle
10
115.93376005869216
20
46.223586870287143
30
0
40
2.5
210
0
220
0
230
1
0
CIRCLE
5
113
100
AcDbEntity
8
INTERIOR_PROFILES
100
AcDbCircle
10
-10.000000371376139
20
-15.500000222334002
30
0
40
2.5
210
0
220
0
230
1
0
LINE
5
114
100
AcDbEntity
8
BEND
100
AcDbLine
10
143.26375366196751
20
-3.3929200658769778
30
-2.8496199605047009e-15
11
126.76452786144426
21
-3.3929200658769778
31
-1.8925370659256911e-15
0
LINE
5
115
100
AcDbEntity
8
BEND
100
AcDbLine
10
-1.7115806976629599
20
-3.3929200658769778
30
-1.8925370659256907e-15
11
-18.235474299224101
21
-3.3929200658769778
31
-1.8925370659256907e-15
0
LINE
5
116
100
AcDbEntity
8
BEND_EXTENT
100
AcDbLine
10
144.8381326550579
20
-6.7858401317539565
30
-4.4408920985006262e-15
11
125.02525079157766
21
-6.7858401317539565
31
-4.4408920985006262e-15
0
LINE
5
117
100
AcDbEntity
8
BEND_EXTENT
100
AcDbLine
10
0.025248928932519732
20
-6.7858401317539565
30
-4.4408920985006262e-15
11
-19.974751369090704
21
-6.7858401317539565
31
-4.4408920985006262e-15
0
LINE
5
118
100
AcDbEntity
8
BEND_EXTENT
100
AcDbLine
10
144.8381326550579
20
0
30
0
11
125.00000186501279
21
0
31
0
0
LINE
5
119
100
AcDbEntity
8
BEND_EXTENT
100
AcDbLine
10
0
20
0
30
0
11
-20.000000296870333
21
0
31
0
0
ENDSEC
0
SECTION
2
OBJECTS
0
DICTIONARY
5
C
100
AcDbDictionary
3
ACAD_GROUP
350
D
3
ACAD_MLINESTYLE
350
17
0
DICTIONARY
5
D
100
AcDbDictionary
0
DICTIONARY
5
1A
330
C
100
AcDbDictionary
0
DICTIONARY
5
17
100
AcDbDictionary
0
ENDSEC
0
EOF
